<?xml version="1.0" encoding="UTF-8" standalone="no"?>
<!DOCTYPE svg PUBLIC "-//W3C//DTD SVG 1.1//EN" "http://www.w3.org/Graphics/SVG/1.1/DTD/svg11.dtd">
<svg width="100%" height="100%" viewBox="0 0 63 130" version="1.1" xmlns="http://www.w3.org/2000/svg" xmlns:xlink="http://www.w3.org/1999/xlink" xml:space="preserve" xmlns:serif="http://www.serif.com/" style="fill-rule:evenodd;clip-rule:evenodd;stroke-linejoin:round;stroke-miterlimit:2;">
    <g transform="matrix(1,0,0,1,-359.68,-68.3305)">
        <g transform="matrix(1,0,0,1,-621.33,-349.13)">
            <g id="g6808" transform="matrix(1,0,0,1,-68.0897,14.2805)">
                <path id="rect3827-5" d="M1111.24,406.18L1111.24,529.47C1111.24,531.126 1109.9,532.47 1108.24,532.47L1052.1,532.47C1050.44,532.47 1049.1,531.126 1049.1,529.47L1049.1,406.18C1049.1,404.524 1050.44,403.18 1052.1,403.18L1108.24,403.18C1109.9,403.18 1111.24,404.524 1111.24,406.18Z" style="fill:rgb(77,77,77);"/>
                <rect id="rect3829-90" x="1050" y="467.57" width="60.419" height="3.536" style="fill:rgb(230,230,230);"/>
                <path id="rect3831-6" d="M1110.41,406.048L1110.41,422.823C1110.41,424.008 1109.45,424.971 1108.27,424.971L1051.95,424.971C1050.76,424.971 1049.8,424.008 1049.8,422.823L1049.8,406.048C1049.8,404.863 1050.76,403.9 1051.95,403.9L1108.27,403.9C1109.45,403.9 1110.41,404.863 1110.41,406.048Z" style="fill:url(#_Linear1);"/>
                <rect id="rect3829-4-7" x="1050" y="455.41" width="58.811" height="10.119" style="fill:rgb(51,51,51);"/>
                <rect id="rect3829-47-3" x="1049.1" y="446.05" width="61.133" height="8.793" style="fill:rgb(51,51,51);"/>
                <rect id="rect3829-3-9" x="1049.1" y="427.63" width="61.133" height="4.546" style="fill:rgb(26,26,26);"/>
                <rect id="rect3829-3-7-5" x="1049.1" y="433.4" width="61.133" height="11.364" style="fill:rgb(26,26,26);"/>
                <g id="rect3829-9-3" transform="matrix(1,0,0,-1,0,0)">
                    <path d="M1109.81,-425.887L1109.81,-425.672C1109.81,-425.107 1109.35,-424.649 1108.79,-424.649L1050.82,-424.649C1050.26,-424.649 1049.8,-425.107 1049.8,-425.672L1049.8,-425.887C1049.8,-426.451 1050.26,-426.91 1050.82,-426.91L1108.79,-426.91C1109.35,-426.91 1109.81,-426.451 1109.81,-425.887Z" style="fill:url(#_Linear2);"/>
                </g>
                <path id="rect3829-9-0-9" d="M1108.53,432.763C1108.53,433.079 1108.28,433.335 1107.96,433.335L1050.47,433.335C1050.16,433.335 1049.9,433.079 1049.9,432.763C1049.9,432.447 1050.16,432.19 1050.47,432.19L1107.96,432.19C1108.28,432.19 1108.53,432.447 1108.53,432.763Z" style="fill:url(#_Linear3);"/>
                <path id="rect3829-9-2-2" d="M1108.53,445.393C1108.53,445.66 1108.32,445.877 1108.05,445.877L1050.38,445.877C1050.12,445.877 1049.9,445.66 1049.9,445.393C1049.9,445.127 1050.12,444.91 1050.38,444.91L1108.05,444.91C1108.32,444.91 1108.53,445.127 1108.53,445.393Z" style="fill:url(#_Linear4);"/>
                <path id="rect3829-9-07-2" d="M1108.53,454.465C1108.53,454.633 1108.4,454.769 1108.23,454.769L1050.2,454.769C1050.04,454.769 1049.9,454.633 1049.9,454.465C1049.9,454.297 1050.04,454.16 1050.2,454.16L1108.23,454.16C1108.4,454.16 1108.53,454.297 1108.53,454.465Z" style="fill:url(#_Linear5);"/>
                <g id="rect3831-5-1" transform="matrix(1,0,0,-1,0,0)">
                    <path d="M1110.52,-529.224L1110.52,-513.235C1110.52,-512.04 1109.55,-511.069 1108.35,-511.069L1051.57,-511.069C1050.37,-511.069 1049.4,-512.04 1049.4,-513.235L1049.4,-529.224C1049.4,-530.419 1050.37,-531.39 1051.57,-531.39L1108.35,-531.39C1109.55,-531.39 1110.52,-530.419 1110.52,-529.224Z" style="fill:url(#_Linear6);"/>
                </g>
                <g id="rect3829-4-1-4" transform="matrix(1,0,0,-1,0,0)">
                    <rect x="1050" y="-483.08" width="58.811" height="9.759" style="fill:rgb(51,51,51);"/>
                </g>
                <g id="rect3829-47-5-63" transform="matrix(1,0,0,-1,0,0)">
                    <rect x="1049.1" y="-492.12" width="61.133" height="8.48" style="fill:rgb(102,102,102);"/>
                </g>
                <g id="rect3829-3-0-0" transform="matrix(1,0,0,-1,0,0)">
                    <rect x="1049.1" y="-509.88" width="61.133" height="4.384" style="fill:rgb(128,128,128);"/>
                </g>
                <g id="rect3829-3-7-0-1" transform="matrix(1,0,0,-1,0,0)">
                    <rect x="1049.1" y="-504.31" width="61.133" height="10.96" style="fill:rgb(128,128,128);"/>
                </g>
                <g id="rect3829-9-04-3" transform="matrix(1,0,0,-1,0,0)">
                    <path d="M1110.17,-511.714L1110.17,-511.606C1110.17,-511.034 1109.7,-510.569 1109.13,-510.569L1050.44,-510.569C1049.86,-510.569 1049.4,-511.034 1049.4,-511.606L1049.4,-511.714C1049.4,-512.286 1049.86,-512.75 1050.44,-512.75L1109.13,-512.75C1109.7,-512.75 1110.17,-512.286 1110.17,-511.714Z" style="fill:url(#_Linear7);"/>
                </g>
                <g id="rect3829-9-0-0-8" transform="matrix(1,0,0,-1,0,0)">
                    <path d="M1110.14,-505.438C1110.14,-505.133 1109.89,-504.886 1109.59,-504.886L1050.45,-504.886C1050.15,-504.886 1049.9,-505.133 1049.9,-505.438C1049.9,-505.743 1050.15,-505.99 1050.45,-505.99L1109.59,-505.99C1109.89,-505.99 1110.14,-505.743 1110.14,-505.438Z" style="fill:url(#_Linear8);"/>
                </g>
                <g id="rect3829-9-2-7-3" transform="matrix(1,0,0,-1,0,0)">
                    <path d="M1109.78,-493.504C1109.78,-493.247 1109.57,-493.038 1109.32,-493.038L1050.37,-493.038C1050.11,-493.038 1049.9,-493.247 1049.9,-493.504C1049.9,-493.761 1050.11,-493.97 1050.37,-493.97L1109.32,-493.97C1109.57,-493.97 1109.78,-493.761 1109.78,-493.504Z" style="fill:url(#_Linear9);"/>
                </g>
                <g id="rect3829-9-07-5-0" transform="matrix(1,0,0,-1,0,0)">
                    <path d="M1109.25,-484.376C1109.25,-484.214 1109.12,-484.082 1108.95,-484.082L1050.19,-484.082C1050.03,-484.082 1049.9,-484.214 1049.9,-484.376C1049.9,-484.538 1050.03,-484.67 1050.19,-484.67L1108.95,-484.67C1109.12,-484.67 1109.25,-484.538 1109.25,-484.376Z" style="fill:url(#_Linear10);"/>
                </g>
            </g>
        </g>
    </g>
    <defs>
        <linearGradient id="_Linear1" x1="0" y1="0" x2="1" y2="0" gradientUnits="userSpaceOnUse" gradientTransform="matrix(7.29889e-16,11.92,-11.92,7.29889e-16,1079.86,404.08)"><stop offset="0" style="stop-color:rgb(153,153,153);stop-opacity:1"/><stop offset="1" style="stop-color:rgb(153,153,153);stop-opacity:0"/></linearGradient>
        <linearGradient id="_Linear2" x1="0" y1="0" x2="1" y2="0" gradientUnits="userSpaceOnUse" gradientTransform="matrix(1.54918e-16,2.53,-2.53,1.54918e-16,1077.43,-427.18)"><stop offset="0" style="stop-color:rgb(204,204,204);stop-opacity:1"/><stop offset="1" style="stop-color:rgb(204,204,204);stop-opacity:0"/></linearGradient>
        <linearGradient id="_Linear3" x1="0" y1="0" x2="1" y2="0" gradientUnits="userSpaceOnUse" gradientTransform="matrix(7.8455e-17,1.28127,-1.28127,7.8455e-17,1076.98,432.048)"><stop offset="0" style="stop-color:rgb(204,204,204);stop-opacity:1"/><stop offset="1" style="stop-color:rgb(204,204,204);stop-opacity:0"/></linearGradient>
        <linearGradient id="_Linear4" x1="0" y1="0" x2="1" y2="0" gradientUnits="userSpaceOnUse" gradientTransform="matrix(6.62212e-17,1.08147,-1.08147,6.62212e-17,1076.98,444.794)"><stop offset="0" style="stop-color:rgb(204,204,204);stop-opacity:1"/><stop offset="1" style="stop-color:rgb(204,204,204);stop-opacity:0"/></linearGradient>
        <linearGradient id="_Linear5" x1="0" y1="0" x2="1" y2="0" gradientUnits="userSpaceOnUse" gradientTransform="matrix(4.17535e-17,0.681886,-0.681886,4.17535e-17,1076.98,454.086)"><stop offset="0" style="stop-color:rgb(204,204,204);stop-opacity:1"/><stop offset="1" style="stop-color:rgb(204,204,204);stop-opacity:0"/></linearGradient>
        <linearGradient id="_Linear6" x1="0" y1="0" x2="1" y2="0" gradientUnits="userSpaceOnUse" gradientTransform="matrix(2.71054e-16,4.42664,-4.42664,2.71054e-16,1079.73,-531.164)"><stop offset="0" style="stop-color:rgb(153,153,153);stop-opacity:1"/><stop offset="1" style="stop-color:rgb(51,51,51);stop-opacity:1"/></linearGradient>
        <linearGradient id="_Linear7" x1="0" y1="0" x2="1" y2="0" gradientUnits="userSpaceOnUse" gradientTransform="matrix(1.49404e-16,2.43996,-2.43996,1.49404e-16,1077.42,-513.003)"><stop offset="0" style="stop-color:rgb(204,204,204);stop-opacity:1"/><stop offset="1" style="stop-color:rgb(204,204,204);stop-opacity:0"/></linearGradient>
        <linearGradient id="_Linear8" x1="0" y1="0" x2="1" y2="0" gradientUnits="userSpaceOnUse" gradientTransform="matrix(7.56634e-17,1.23568,-1.23568,7.56634e-17,1077.72,-506.12)"><stop offset="0" style="stop-color:rgb(204,204,204);stop-opacity:1"/><stop offset="1" style="stop-color:rgb(204,204,204);stop-opacity:0"/></linearGradient>
        <linearGradient id="_Linear9" x1="0" y1="0" x2="1" y2="0" gradientUnits="userSpaceOnUse" gradientTransform="matrix(6.38649e-17,1.04299,-1.04299,6.38649e-17,1077.54,-494.079)"><stop offset="0" style="stop-color:rgb(204,204,204);stop-opacity:1"/><stop offset="1" style="stop-color:rgb(204,204,204);stop-opacity:0"/></linearGradient>
        <linearGradient id="_Linear10" x1="0" y1="0" x2="1" y2="0" gradientUnits="userSpaceOnUse" gradientTransform="matrix(4.02678e-17,0.657623,-0.657623,4.02678e-17,1077.33,-484.747)"><stop offset="0" style="stop-color:rgb(204,204,204);stop-opacity:1"/><stop offset="1" style="stop-color:rgb(204,204,204);stop-opacity:0"/></linearGradient>
    </defs>
</svg>
